<svg width="32" height="32" viewBox="0 0 32 32" xmlns="http://www.w3.org/2000/svg">
  <defs>
    <linearGradient id="grad" x1="0%" y1="0%" x2="100%" y2="100%">
      <stop offset="0%" style="stop-color:#667eea;stop-opacity:1" />
      <stop offset="100%" style="stop-color:#764ba2;stop-opacity:1" />
    </linearGradient>
  </defs>
  
  <!-- Background with rounded corners -->
  <rect width="32" height="32" rx="6" fill="url(#grad)"/>
  
  <!-- AI Spark/Neural Node Icon in White -->
  <!-- Central node -->
  <circle cx="16" cy="16" r="2.5" fill="white"/>
  
  <!-- Top node -->
  <circle cx="16" cy="8" r="1.8" fill="white"/>
  <line x1="16" y1="13.5" x2="16" y2="9.8" stroke="white" stroke-width="1.2" stroke-linecap="round"/>
  
  <!-- Bottom node -->
  <circle cx="16" cy="24" r="1.8" fill="white"/>
  <line x1="16" y1="18.5" x2="16" y2="22.2" stroke="white" stroke-width="1.2" stroke-linecap="round"/>
  
  <!-- Left node -->
  <circle cx="8" cy="16" r="1.8" fill="white"/>
  <line x1="13.5" y1="16" x2="9.8" y2="16" stroke="white" stroke-width="1.2" stroke-linecap="round"/>
  
  <!-- Right node -->
  <circle cx="24" cy="16" r="1.8" fill="white"/>
  <line x1="18.5" y1="16" x2="22.2" y2="16" stroke="white" stroke-width="1.2" stroke-linecap="round"/>
  
  <!-- Top-right diagonal node -->
  <circle cx="22" cy="10" r="1.5" fill="white" opacity="0.9"/>
  <line x1="17.8" y1="14.2" x2="20.5" y2="11.5" stroke="white" stroke-width="1" stroke-linecap="round" opacity="0.9"/>
  
  <!-- Bottom-left diagonal node -->
  <circle cx="10" cy="22" r="1.5" fill="white" opacity="0.9"/>
  <line x1="14.2" y1="17.8" x2="11.5" y2="20.5" stroke="white" stroke-width="1" stroke-linecap="round" opacity="0.9"/>
  
  <!-- Small accent sparks for AI feel -->
  <circle cx="12" cy="10" r="0.8" fill="white" opacity="0.7"/>
  <circle cx="20" cy="22" r="0.8" fill="white" opacity="0.7"/>
</svg>